<mxfile host="app.diagrams.net" modified="2023-10-10T15:59:11.973Z" agent="Mozilla/5.0 (Windows NT 10.0; Win64; x64) AppleWebKit/537.36 (KHTML, like Gecko) Chrome/117.0.0.0 Safari/537.36" etag="9AXpFUUKn8duGRoQgUK3" version="21.2.9" type="device">
  <diagram name="Page-1" id="tzplS1Nw9_0ZMxFAnvV5">
    <mxGraphModel dx="1743" dy="1333" grid="1" gridSize="10" guides="1" tooltips="1" connect="1" arrows="1" fold="1" page="0" pageScale="1" pageWidth="850" pageHeight="1100" math="0" shadow="0">
      <root>
        <mxCell id="0" />
        <mxCell id="1" parent="0" />
        <mxCell id="LjtixPhpLmeqq4RMl3_7-2" value="&lt;font style=&quot;font-size: 20px;&quot;&gt;&lt;b&gt;1.&lt;br&gt;AgroMart&lt;/b&gt;&lt;/font&gt;" style="rounded=0;whiteSpace=wrap;html=1;fontSize=16;" vertex="1" parent="1">
          <mxGeometry x="320" y="-120" width="120" height="60" as="geometry" />
        </mxCell>
        <mxCell id="LjtixPhpLmeqq4RMl3_7-3" value="&lt;font style=&quot;font-size: 20px;&quot;&gt;1.4&lt;br&gt;Customer Evolution&lt;/font&gt;" style="rounded=0;whiteSpace=wrap;html=1;fontSize=16;" vertex="1" parent="1">
          <mxGeometry x="284" y="74" width="120" height="81" as="geometry" />
        </mxCell>
        <mxCell id="LjtixPhpLmeqq4RMl3_7-6" value="&lt;font style=&quot;font-size: 20px;&quot;&gt;1.5&lt;br&gt;Review and Refine&lt;/font&gt;" style="rounded=0;whiteSpace=wrap;html=1;fontSize=16;" vertex="1" parent="1">
          <mxGeometry x="470" y="74" width="120" height="76" as="geometry" />
        </mxCell>
        <mxCell id="LjtixPhpLmeqq4RMl3_7-11" value="" style="endArrow=none;html=1;rounded=0;fontSize=12;startSize=8;endSize=8;curved=1;strokeWidth=2;" edge="1" parent="1">
          <mxGeometry width="50" height="50" relative="1" as="geometry">
            <mxPoint x="380" y="29" as="sourcePoint" />
            <mxPoint x="380" y="-60" as="targetPoint" />
          </mxGeometry>
        </mxCell>
        <mxCell id="LjtixPhpLmeqq4RMl3_7-12" value="" style="endArrow=none;html=1;rounded=0;fontSize=12;startSize=8;endSize=8;curved=1;strokeWidth=2;" edge="1" parent="1">
          <mxGeometry width="50" height="50" relative="1" as="geometry">
            <mxPoint x="-162" y="29" as="sourcePoint" />
            <mxPoint x="890" y="30" as="targetPoint" />
          </mxGeometry>
        </mxCell>
        <mxCell id="LjtixPhpLmeqq4RMl3_7-14" value="" style="endArrow=classic;html=1;rounded=0;fontSize=12;startSize=8;endSize=8;curved=1;strokeWidth=2;" edge="1" parent="1">
          <mxGeometry width="50" height="50" relative="1" as="geometry">
            <mxPoint x="709.83" y="28" as="sourcePoint" />
            <mxPoint x="709.33" y="74" as="targetPoint" />
          </mxGeometry>
        </mxCell>
        <mxCell id="LjtixPhpLmeqq4RMl3_7-19" value="" style="endArrow=classic;html=1;rounded=0;fontSize=12;startSize=8;endSize=8;curved=1;entryX=0.5;entryY=0;entryDx=0;entryDy=0;strokeWidth=2;" edge="1" parent="1">
          <mxGeometry width="50" height="50" relative="1" as="geometry">
            <mxPoint x="6" y="29" as="sourcePoint" />
            <mxPoint x="6" y="74" as="targetPoint" />
          </mxGeometry>
        </mxCell>
        <mxCell id="LjtixPhpLmeqq4RMl3_7-20" value="" style="endArrow=classic;html=1;rounded=0;fontSize=12;startSize=8;endSize=8;curved=1;entryX=0.5;entryY=0;entryDx=0;entryDy=0;strokeWidth=2;" edge="1" parent="1">
          <mxGeometry width="50" height="50" relative="1" as="geometry">
            <mxPoint x="177.86" y="29" as="sourcePoint" />
            <mxPoint x="177.86" y="74" as="targetPoint" />
          </mxGeometry>
        </mxCell>
        <mxCell id="LjtixPhpLmeqq4RMl3_7-21" value="" style="endArrow=classic;html=1;rounded=0;fontSize=12;startSize=8;endSize=8;curved=1;entryX=0.5;entryY=0;entryDx=0;entryDy=0;strokeWidth=2;" edge="1" parent="1">
          <mxGeometry width="50" height="50" relative="1" as="geometry">
            <mxPoint x="343.73" y="29" as="sourcePoint" />
            <mxPoint x="343.73" y="74" as="targetPoint" />
          </mxGeometry>
        </mxCell>
        <mxCell id="LjtixPhpLmeqq4RMl3_7-22" value="" style="endArrow=classic;html=1;rounded=0;fontSize=12;startSize=8;endSize=8;curved=1;entryX=0.5;entryY=0;entryDx=0;entryDy=0;strokeWidth=2;" edge="1" parent="1">
          <mxGeometry width="50" height="50" relative="1" as="geometry">
            <mxPoint x="509.8" y="29" as="sourcePoint" />
            <mxPoint x="509.8" y="74" as="targetPoint" />
          </mxGeometry>
        </mxCell>
        <mxCell id="LjtixPhpLmeqq4RMl3_7-23" value="&lt;font style=&quot;font-size: 20px;&quot;&gt;1.6&lt;br&gt;Customer Approval&lt;/font&gt;" style="rounded=0;whiteSpace=wrap;html=1;fontSize=16;" vertex="1" parent="1">
          <mxGeometry x="660" y="74" width="120" height="76" as="geometry" />
        </mxCell>
        <mxCell id="LjtixPhpLmeqq4RMl3_7-54" value="" style="group" vertex="1" connectable="0" parent="1">
          <mxGeometry x="-48" y="74" width="204" height="405" as="geometry" />
        </mxCell>
        <mxCell id="LjtixPhpLmeqq4RMl3_7-25" value="" style="edgeStyle=none;curved=1;rounded=0;orthogonalLoop=1;jettySize=auto;html=1;fontSize=12;startSize=8;endSize=8;strokeWidth=2;" edge="1" parent="LjtixPhpLmeqq4RMl3_7-54" target="LjtixPhpLmeqq4RMl3_7-24">
          <mxGeometry relative="1" as="geometry">
            <mxPoint x="42" y="206.16194331983803" as="sourcePoint" />
          </mxGeometry>
        </mxCell>
        <mxCell id="LjtixPhpLmeqq4RMl3_7-5" value="&lt;font style=&quot;font-size: 20px;&quot;&gt;1.2&lt;br&gt;Design&lt;/font&gt;" style="rounded=0;whiteSpace=wrap;html=1;fontSize=16;" vertex="1" parent="LjtixPhpLmeqq4RMl3_7-54">
          <mxGeometry width="120" height="81" as="geometry" />
        </mxCell>
        <mxCell id="LjtixPhpLmeqq4RMl3_7-24" value="&lt;font style=&quot;font-size: 20px;&quot;&gt;1.2.1&lt;br&gt;Quick Decision Making&lt;/font&gt;" style="rounded=0;whiteSpace=wrap;html=1;fontSize=16;" vertex="1" parent="LjtixPhpLmeqq4RMl3_7-54">
          <mxGeometry x="80" y="154" width="124" height="105.45" as="geometry" />
        </mxCell>
        <mxCell id="LjtixPhpLmeqq4RMl3_7-30" value="" style="endArrow=none;html=1;rounded=0;fontSize=12;startSize=8;endSize=8;curved=1;entryX=0.342;entryY=1;entryDx=0;entryDy=0;entryPerimeter=0;strokeWidth=2;" edge="1" parent="LjtixPhpLmeqq4RMl3_7-54" target="LjtixPhpLmeqq4RMl3_7-5">
          <mxGeometry width="50" height="50" relative="1" as="geometry">
            <mxPoint x="42" y="362.0404858299595" as="sourcePoint" />
            <mxPoint x="46" y="261.4736842105263" as="targetPoint" />
          </mxGeometry>
        </mxCell>
        <mxCell id="LjtixPhpLmeqq4RMl3_7-78" value="" style="group" vertex="1" connectable="0" parent="LjtixPhpLmeqq4RMl3_7-54">
          <mxGeometry x="41" y="325" width="158" height="81" as="geometry" />
        </mxCell>
        <mxCell id="LjtixPhpLmeqq4RMl3_7-27" value="" style="edgeStyle=none;curved=1;rounded=0;orthogonalLoop=1;jettySize=auto;html=1;fontSize=12;startSize=8;endSize=8;strokeWidth=2;entryX=0.001;entryY=0.452;entryDx=0;entryDy=0;entryPerimeter=0;" edge="1" parent="LjtixPhpLmeqq4RMl3_7-78" target="LjtixPhpLmeqq4RMl3_7-26">
          <mxGeometry relative="1" as="geometry">
            <mxPoint y="36.364372469635555" as="sourcePoint" />
          </mxGeometry>
        </mxCell>
        <mxCell id="LjtixPhpLmeqq4RMl3_7-26" value="&lt;font style=&quot;font-size: 20px;&quot;&gt;1.2.2&lt;br&gt;Quick Design&lt;/font&gt;" style="whiteSpace=wrap;html=1;fontSize=16;rounded=0;" vertex="1" parent="LjtixPhpLmeqq4RMl3_7-78">
          <mxGeometry x="44" width="114" height="81" as="geometry" />
        </mxCell>
        <mxCell id="LjtixPhpLmeqq4RMl3_7-55" value="" style="group" vertex="1" connectable="0" parent="1">
          <mxGeometry x="118" y="74" width="230" height="720" as="geometry" />
        </mxCell>
        <mxCell id="LjtixPhpLmeqq4RMl3_7-8" value="&lt;font style=&quot;font-size: 20px;&quot;&gt;1.3&lt;br&gt;Prototypes&lt;/font&gt;" style="rounded=0;whiteSpace=wrap;html=1;fontSize=16;" vertex="1" parent="LjtixPhpLmeqq4RMl3_7-55">
          <mxGeometry width="120" height="81" as="geometry" />
        </mxCell>
        <mxCell id="LjtixPhpLmeqq4RMl3_7-75" value="" style="group" vertex="1" connectable="0" parent="LjtixPhpLmeqq4RMl3_7-55">
          <mxGeometry x="60" y="125" width="170" height="595" as="geometry" />
        </mxCell>
        <mxCell id="LjtixPhpLmeqq4RMl3_7-28" value="&lt;font style=&quot;font-size: 20px;&quot;&gt;1.3.1&lt;br&gt;Search &amp;amp; Filter&lt;br&gt;Prototype&lt;/font&gt;" style="rounded=0;whiteSpace=wrap;html=1;fontSize=16;" vertex="1" parent="LjtixPhpLmeqq4RMl3_7-75">
          <mxGeometry x="46" y="-3" width="124" height="100" as="geometry" />
        </mxCell>
        <mxCell id="LjtixPhpLmeqq4RMl3_7-34" value="" style="endArrow=none;html=1;rounded=0;fontSize=12;startSize=8;endSize=8;curved=1;entryX=0.5;entryY=1;entryDx=0;entryDy=0;strokeWidth=2;" edge="1" parent="LjtixPhpLmeqq4RMl3_7-75" target="LjtixPhpLmeqq4RMl3_7-8">
          <mxGeometry width="50" height="50" relative="1" as="geometry">
            <mxPoint y="549.2307692307693" as="sourcePoint" />
            <mxPoint x="48" y="135.72944297082228" as="targetPoint" />
          </mxGeometry>
        </mxCell>
        <mxCell id="LjtixPhpLmeqq4RMl3_7-35" value="&lt;font style=&quot;font-size: 20px;&quot;&gt;1.3.2&lt;br&gt;Add to Cart Prototype&lt;/font&gt;" style="rounded=0;whiteSpace=wrap;html=1;fontSize=16;" vertex="1" parent="LjtixPhpLmeqq4RMl3_7-75">
          <mxGeometry x="46" y="171.12957559681698" width="120" height="94.69496021220158" as="geometry" />
        </mxCell>
        <mxCell id="LjtixPhpLmeqq4RMl3_7-36" value="&lt;font style=&quot;font-size: 20px;&quot;&gt;1.3.3&lt;br&gt;Checkout Prototype&lt;/font&gt;" style="rounded=0;whiteSpace=wrap;html=1;fontSize=16;" vertex="1" parent="LjtixPhpLmeqq4RMl3_7-75">
          <mxGeometry x="45" y="339.3236074270557" width="120" height="94.69496021220158" as="geometry" />
        </mxCell>
        <mxCell id="LjtixPhpLmeqq4RMl3_7-37" value="&lt;font style=&quot;font-size: 20px;&quot;&gt;1.3.4&lt;br&gt;Payment Prototype&lt;/font&gt;" style="rounded=0;whiteSpace=wrap;html=1;fontSize=16;" vertex="1" parent="LjtixPhpLmeqq4RMl3_7-75">
          <mxGeometry x="43" y="500.30503978779836" width="120" height="94.69496021220158" as="geometry" />
        </mxCell>
        <mxCell id="LjtixPhpLmeqq4RMl3_7-38" value="" style="edgeStyle=none;curved=1;rounded=0;orthogonalLoop=1;jettySize=auto;html=1;fontSize=12;startSize=8;endSize=8;strokeWidth=2;entryX=-0.001;entryY=0.48;entryDx=0;entryDy=0;entryPerimeter=0;" edge="1" parent="LjtixPhpLmeqq4RMl3_7-75" target="LjtixPhpLmeqq4RMl3_7-28">
          <mxGeometry relative="1" as="geometry">
            <mxPoint x="1" y="45.2710918287351" as="sourcePoint" />
            <mxPoint x="45" y="46.274270557029126" as="targetPoint" />
          </mxGeometry>
        </mxCell>
        <mxCell id="LjtixPhpLmeqq4RMl3_7-39" value="" style="edgeStyle=none;curved=1;rounded=0;orthogonalLoop=1;jettySize=auto;html=1;fontSize=12;startSize=8;endSize=8;strokeWidth=2;entryX=0;entryY=0.5;entryDx=0;entryDy=0;" edge="1" parent="LjtixPhpLmeqq4RMl3_7-75" target="LjtixPhpLmeqq4RMl3_7-35">
          <mxGeometry relative="1" as="geometry">
            <mxPoint x="1" y="217.79840848806364" as="sourcePoint" />
            <mxPoint x="46" y="228.27798408488061" as="targetPoint" />
          </mxGeometry>
        </mxCell>
        <mxCell id="LjtixPhpLmeqq4RMl3_7-40" value="" style="edgeStyle=none;curved=1;rounded=0;orthogonalLoop=1;jettySize=auto;html=1;fontSize=12;startSize=8;endSize=8;strokeWidth=2;entryX=0;entryY=0.5;entryDx=0;entryDy=0;" edge="1" parent="LjtixPhpLmeqq4RMl3_7-75" target="LjtixPhpLmeqq4RMl3_7-36">
          <mxGeometry relative="1" as="geometry">
            <mxPoint y="384.5946992557908" as="sourcePoint" />
            <mxPoint x="44" y="385.0928381962865" as="targetPoint" />
          </mxGeometry>
        </mxCell>
        <mxCell id="LjtixPhpLmeqq4RMl3_7-41" value="" style="edgeStyle=none;curved=1;rounded=0;orthogonalLoop=1;jettySize=auto;html=1;fontSize=12;startSize=8;endSize=8;strokeWidth=2;entryX=0;entryY=0.5;entryDx=0;entryDy=0;" edge="1" parent="LjtixPhpLmeqq4RMl3_7-75" target="LjtixPhpLmeqq4RMl3_7-37">
          <mxGeometry relative="1" as="geometry">
            <mxPoint y="547.6525198938992" as="sourcePoint" />
            <mxPoint x="44" y="558.132095490716" as="targetPoint" />
          </mxGeometry>
        </mxCell>
        <mxCell id="LjtixPhpLmeqq4RMl3_7-56" value="" style="group" vertex="1" connectable="0" parent="1">
          <mxGeometry x="359" y="155" width="170" height="430" as="geometry" />
        </mxCell>
        <mxCell id="LjtixPhpLmeqq4RMl3_7-42" value="&lt;font style=&quot;font-size: 20px;&quot;&gt;1.4.1&lt;br&gt;Present built prototype to user&lt;/font&gt;" style="rounded=0;whiteSpace=wrap;html=1;fontSize=16;container=0;" vertex="1" parent="LjtixPhpLmeqq4RMl3_7-56">
          <mxGeometry x="50" y="54.99684684684684" width="120" height="100.78393393393394" as="geometry" />
        </mxCell>
        <mxCell id="LjtixPhpLmeqq4RMl3_7-43" value="" style="endArrow=none;html=1;rounded=0;fontSize=12;startSize=8;endSize=8;curved=1;strokeWidth=2;" edge="1" parent="LjtixPhpLmeqq4RMl3_7-56">
          <mxGeometry width="50" height="50" relative="1" as="geometry">
            <mxPoint x="1" y="367.64264264264267" as="sourcePoint" />
            <mxPoint x="1" as="targetPoint" />
          </mxGeometry>
        </mxCell>
        <mxCell id="LjtixPhpLmeqq4RMl3_7-44" value="&lt;font style=&quot;font-size: 20px;&quot;&gt;1.4.2&lt;br&gt;Find strength &amp;amp; weakness&lt;/font&gt;" style="rounded=0;whiteSpace=wrap;html=1;fontSize=16;container=0;" vertex="1" parent="LjtixPhpLmeqq4RMl3_7-56">
          <mxGeometry x="50" y="182.13" width="120" height="89.87" as="geometry" />
        </mxCell>
        <mxCell id="LjtixPhpLmeqq4RMl3_7-45" value="&lt;font style=&quot;font-size: 20px;&quot;&gt;1.4.3&lt;br&gt;Suggest &amp;amp; comment to developer&lt;/font&gt;" style="rounded=0;whiteSpace=wrap;html=1;fontSize=16;container=0;" vertex="1" parent="LjtixPhpLmeqq4RMl3_7-56">
          <mxGeometry x="49" y="320.45" width="121" height="109.55" as="geometry" />
        </mxCell>
        <mxCell id="LjtixPhpLmeqq4RMl3_7-47" value="" style="edgeStyle=none;curved=1;rounded=0;orthogonalLoop=1;jettySize=auto;html=1;fontSize=12;startSize=8;endSize=8;strokeWidth=2;entryX=0;entryY=0.5;entryDx=0;entryDy=0;" edge="1" parent="LjtixPhpLmeqq4RMl3_7-56" target="LjtixPhpLmeqq4RMl3_7-42">
          <mxGeometry relative="1" as="geometry">
            <mxPoint x="1" y="105.93093093093093" as="sourcePoint" />
            <mxPoint x="41" y="130.85585585585585" as="targetPoint" />
          </mxGeometry>
        </mxCell>
        <mxCell id="LjtixPhpLmeqq4RMl3_7-48" value="" style="edgeStyle=none;curved=1;rounded=0;orthogonalLoop=1;jettySize=auto;html=1;fontSize=12;startSize=8;endSize=8;strokeWidth=2;entryX=0;entryY=0.5;entryDx=0;entryDy=0;" edge="1" parent="LjtixPhpLmeqq4RMl3_7-56" target="LjtixPhpLmeqq4RMl3_7-44">
          <mxGeometry relative="1" as="geometry">
            <mxPoint x="1" y="228.06306306306305" as="sourcePoint" />
            <mxPoint x="50" y="235.25390390390388" as="targetPoint" />
          </mxGeometry>
        </mxCell>
        <mxCell id="LjtixPhpLmeqq4RMl3_7-49" value="" style="edgeStyle=none;curved=1;rounded=0;orthogonalLoop=1;jettySize=auto;html=1;fontSize=12;startSize=8;endSize=8;strokeWidth=2;entryX=0;entryY=0.5;entryDx=0;entryDy=0;" edge="1" parent="LjtixPhpLmeqq4RMl3_7-56">
          <mxGeometry relative="1" as="geometry">
            <mxPoint y="367.64264264264267" as="sourcePoint" />
            <mxPoint x="49" y="367.7236486486486" as="targetPoint" />
          </mxGeometry>
        </mxCell>
        <mxCell id="LjtixPhpLmeqq4RMl3_7-66" value="" style="group" vertex="1" connectable="0" parent="1">
          <mxGeometry x="740" y="150" width="190" height="390.0032432432433" as="geometry" />
        </mxCell>
        <mxCell id="LjtixPhpLmeqq4RMl3_7-67" value="&lt;font style=&quot;font-size: 20px;&quot;&gt;1.6.1&lt;br&gt;Final Development&lt;/font&gt;" style="rounded=0;whiteSpace=wrap;html=1;fontSize=16;container=0;" vertex="1" parent="LjtixPhpLmeqq4RMl3_7-66">
          <mxGeometry x="50" y="51.68" width="140" height="98.32" as="geometry" />
        </mxCell>
        <mxCell id="LjtixPhpLmeqq4RMl3_7-68" value="" style="endArrow=none;html=1;rounded=0;fontSize=12;startSize=8;endSize=8;curved=1;strokeWidth=2;" edge="1" parent="LjtixPhpLmeqq4RMl3_7-66">
          <mxGeometry width="50" height="50" relative="1" as="geometry">
            <mxPoint x="1" y="345.4954954954955" as="sourcePoint" />
            <mxPoint x="1" as="targetPoint" />
          </mxGeometry>
        </mxCell>
        <mxCell id="LjtixPhpLmeqq4RMl3_7-69" value="&lt;font style=&quot;font-size: 20px;&quot;&gt;1.6.2&lt;br&gt;Final Testing&lt;/font&gt;" style="rounded=0;whiteSpace=wrap;html=1;fontSize=16;container=0;" vertex="1" parent="LjtixPhpLmeqq4RMl3_7-66">
          <mxGeometry x="50" y="178.67" width="140" height="71.33" as="geometry" />
        </mxCell>
        <mxCell id="LjtixPhpLmeqq4RMl3_7-71" value="" style="edgeStyle=none;curved=1;rounded=0;orthogonalLoop=1;jettySize=auto;html=1;fontSize=12;startSize=8;endSize=8;strokeWidth=2;entryX=0;entryY=0.5;entryDx=0;entryDy=0;" edge="1" parent="LjtixPhpLmeqq4RMl3_7-66" target="LjtixPhpLmeqq4RMl3_7-67">
          <mxGeometry relative="1" as="geometry">
            <mxPoint x="1" y="99.54954954954955" as="sourcePoint" />
            <mxPoint x="41" y="122.97297297297298" as="targetPoint" />
          </mxGeometry>
        </mxCell>
        <mxCell id="LjtixPhpLmeqq4RMl3_7-72" value="" style="edgeStyle=none;curved=1;rounded=0;orthogonalLoop=1;jettySize=auto;html=1;fontSize=12;startSize=8;endSize=8;strokeWidth=2;entryX=0;entryY=0.5;entryDx=0;entryDy=0;" edge="1" parent="LjtixPhpLmeqq4RMl3_7-66" target="LjtixPhpLmeqq4RMl3_7-69">
          <mxGeometry relative="1" as="geometry">
            <mxPoint x="1" y="214.32432432432432" as="sourcePoint" />
            <mxPoint x="50" y="221.08198198198195" as="targetPoint" />
          </mxGeometry>
        </mxCell>
        <mxCell id="LjtixPhpLmeqq4RMl3_7-79" value="" style="group" vertex="1" connectable="0" parent="LjtixPhpLmeqq4RMl3_7-66">
          <mxGeometry y="301.14324324324326" width="190" height="88.86" as="geometry" />
        </mxCell>
        <mxCell id="LjtixPhpLmeqq4RMl3_7-70" value="&lt;font style=&quot;font-size: 20px;&quot;&gt;1.6.3&lt;br&gt;Deployment&lt;/font&gt;" style="rounded=0;whiteSpace=wrap;html=1;fontSize=16;container=0;" vertex="1" parent="LjtixPhpLmeqq4RMl3_7-79">
          <mxGeometry x="49" width="141" height="88.86" as="geometry" />
        </mxCell>
        <mxCell id="LjtixPhpLmeqq4RMl3_7-73" value="" style="edgeStyle=none;curved=1;rounded=0;orthogonalLoop=1;jettySize=auto;html=1;fontSize=12;startSize=8;endSize=8;strokeWidth=2;entryX=0;entryY=0.5;entryDx=0;entryDy=0;" edge="1" parent="LjtixPhpLmeqq4RMl3_7-79">
          <mxGeometry relative="1" as="geometry">
            <mxPoint y="44.35225225225224" as="sourcePoint" />
            <mxPoint x="49" y="44.428378378378284" as="targetPoint" />
          </mxGeometry>
        </mxCell>
        <mxCell id="LjtixPhpLmeqq4RMl3_7-76" value="" style="group" vertex="1" connectable="0" parent="1">
          <mxGeometry x="540" y="150" width="170" height="460" as="geometry" />
        </mxCell>
        <mxCell id="LjtixPhpLmeqq4RMl3_7-58" value="&lt;font style=&quot;font-size: 20px;&quot;&gt;1.5.1&lt;br&gt;Developer collect feedback&lt;/font&gt;" style="rounded=0;whiteSpace=wrap;html=1;fontSize=16;container=0;" vertex="1" parent="LjtixPhpLmeqq4RMl3_7-76">
          <mxGeometry x="50" y="59.53020527859236" width="120" height="109.09149560117302" as="geometry" />
        </mxCell>
        <mxCell id="LjtixPhpLmeqq4RMl3_7-59" value="" style="endArrow=none;html=1;rounded=0;fontSize=12;startSize=8;endSize=8;curved=1;strokeWidth=2;" edge="1" parent="LjtixPhpLmeqq4RMl3_7-76">
          <mxGeometry width="50" height="50" relative="1" as="geometry">
            <mxPoint x="1" y="397.9472140762463" as="sourcePoint" />
            <mxPoint x="1" as="targetPoint" />
          </mxGeometry>
        </mxCell>
        <mxCell id="LjtixPhpLmeqq4RMl3_7-60" value="&lt;font style=&quot;font-size: 20px;&quot;&gt;1.5.2&lt;br&gt;Refine the prototype&lt;/font&gt;" style="rounded=0;whiteSpace=wrap;html=1;fontSize=16;container=0;" vertex="1" parent="LjtixPhpLmeqq4RMl3_7-76">
          <mxGeometry x="50" y="203.10146627565982" width="120" height="90.97478005865102" as="geometry" />
        </mxCell>
        <mxCell id="LjtixPhpLmeqq4RMl3_7-61" value="&lt;font style=&quot;font-size: 20px;&quot;&gt;1.5.3&lt;br&gt;Process repeats until the user satisfied&lt;/font&gt;" style="rounded=0;whiteSpace=wrap;html=1;fontSize=16;container=0;" vertex="1" parent="LjtixPhpLmeqq4RMl3_7-76">
          <mxGeometry x="49" y="334.72082111436947" width="120" height="125.2791788856305" as="geometry" />
        </mxCell>
        <mxCell id="LjtixPhpLmeqq4RMl3_7-62" value="" style="edgeStyle=none;curved=1;rounded=0;orthogonalLoop=1;jettySize=auto;html=1;fontSize=12;startSize=8;endSize=8;strokeWidth=2;entryX=0;entryY=0.5;entryDx=0;entryDy=0;" edge="1" parent="LjtixPhpLmeqq4RMl3_7-76" target="LjtixPhpLmeqq4RMl3_7-58">
          <mxGeometry relative="1" as="geometry">
            <mxPoint x="1" y="114.66275659824046" as="sourcePoint" />
            <mxPoint x="41" y="141.64222873900292" as="targetPoint" />
          </mxGeometry>
        </mxCell>
        <mxCell id="LjtixPhpLmeqq4RMl3_7-63" value="" style="edgeStyle=none;curved=1;rounded=0;orthogonalLoop=1;jettySize=auto;html=1;fontSize=12;startSize=8;endSize=8;strokeWidth=2;entryX=0;entryY=0.5;entryDx=0;entryDy=0;" edge="1" parent="LjtixPhpLmeqq4RMl3_7-76" target="LjtixPhpLmeqq4RMl3_7-60">
          <mxGeometry relative="1" as="geometry">
            <mxPoint x="1" y="246.86217008797652" as="sourcePoint" />
            <mxPoint x="50" y="254.64574780058646" as="targetPoint" />
          </mxGeometry>
        </mxCell>
        <mxCell id="LjtixPhpLmeqq4RMl3_7-64" value="" style="edgeStyle=none;curved=1;rounded=0;orthogonalLoop=1;jettySize=auto;html=1;fontSize=12;startSize=8;endSize=8;strokeWidth=2;entryX=0;entryY=0.5;entryDx=0;entryDy=0;" edge="1" parent="LjtixPhpLmeqq4RMl3_7-76">
          <mxGeometry relative="1" as="geometry">
            <mxPoint y="397.9472140762463" as="sourcePoint" />
            <mxPoint x="49" y="398.0348973607037" as="targetPoint" />
          </mxGeometry>
        </mxCell>
        <mxCell id="LjtixPhpLmeqq4RMl3_7-13" value="" style="endArrow=classic;html=1;rounded=0;fontSize=12;startSize=8;endSize=8;curved=1;entryX=0.5;entryY=0;entryDx=0;entryDy=0;strokeWidth=2;" edge="1" parent="1" target="LjtixPhpLmeqq4RMl3_7-7">
          <mxGeometry width="50" height="50" relative="1" as="geometry">
            <mxPoint x="-161" y="29" as="sourcePoint" />
            <mxPoint x="-79" y="144" as="targetPoint" />
          </mxGeometry>
        </mxCell>
        <mxCell id="LjtixPhpLmeqq4RMl3_7-15" value="" style="edgeStyle=none;curved=1;rounded=0;orthogonalLoop=1;jettySize=auto;html=1;fontSize=12;startSize=8;endSize=8;strokeWidth=2;entryX=0;entryY=0.5;entryDx=0;entryDy=0;" edge="1" parent="1" target="LjtixPhpLmeqq4RMl3_7-4">
          <mxGeometry relative="1" as="geometry">
            <mxPoint x="-208" y="234" as="sourcePoint" />
          </mxGeometry>
        </mxCell>
        <mxCell id="LjtixPhpLmeqq4RMl3_7-7" value="&lt;font style=&quot;font-size: 20px;&quot;&gt;1.1&lt;br&gt;Initation&lt;/font&gt;" style="rounded=0;whiteSpace=wrap;html=1;fontSize=16;" vertex="1" parent="1">
          <mxGeometry x="-221" y="74" width="120" height="81.13360323886639" as="geometry" />
        </mxCell>
        <mxCell id="LjtixPhpLmeqq4RMl3_7-29" value="" style="endArrow=none;html=1;rounded=0;fontSize=12;startSize=8;endSize=8;curved=1;entryX=0.109;entryY=0.992;entryDx=0;entryDy=0;entryPerimeter=0;strokeWidth=2;" edge="1" parent="1" target="LjtixPhpLmeqq4RMl3_7-7">
          <mxGeometry width="50" height="50" relative="1" as="geometry">
            <mxPoint x="-208" y="370" as="sourcePoint" />
            <mxPoint x="-253" y="217.33603238866397" as="targetPoint" />
          </mxGeometry>
        </mxCell>
        <mxCell id="LjtixPhpLmeqq4RMl3_7-4" value="&lt;font style=&quot;font-size: 20px;&quot;&gt;1.1.1&amp;nbsp;&lt;br&gt;Requirement Gatehering&lt;/font&gt;" style="rounded=0;whiteSpace=wrap;html=1;fontSize=16;" vertex="1" parent="1">
          <mxGeometry x="-165" y="188" width="120" height="92" as="geometry" />
        </mxCell>
        <mxCell id="LjtixPhpLmeqq4RMl3_7-77" value="" style="group" vertex="1" connectable="0" parent="1">
          <mxGeometry x="-209" y="324" width="163" height="87" as="geometry" />
        </mxCell>
        <mxCell id="LjtixPhpLmeqq4RMl3_7-18" value="" style="edgeStyle=none;curved=1;rounded=0;orthogonalLoop=1;jettySize=auto;html=1;fontSize=12;startSize=8;endSize=8;strokeWidth=2;entryX=0.003;entryY=0.517;entryDx=0;entryDy=0;entryPerimeter=0;" edge="1" parent="LjtixPhpLmeqq4RMl3_7-77" target="LjtixPhpLmeqq4RMl3_7-16">
          <mxGeometry relative="1" as="geometry">
            <mxPoint y="45" as="sourcePoint" />
          </mxGeometry>
        </mxCell>
        <mxCell id="LjtixPhpLmeqq4RMl3_7-16" value="&lt;font style=&quot;font-size: 20px;&quot;&gt;1.1.2.&lt;br&gt;Requirement Analysis&lt;/font&gt;" style="rounded=0;whiteSpace=wrap;html=1;fontSize=16;" vertex="1" parent="LjtixPhpLmeqq4RMl3_7-77">
          <mxGeometry x="43" width="120" height="87" as="geometry" />
        </mxCell>
        <mxCell id="LjtixPhpLmeqq4RMl3_7-81" value="&lt;font style=&quot;font-size: 20px;&quot;&gt;1.7&lt;br&gt;Documentation&lt;/font&gt;" style="rounded=0;whiteSpace=wrap;html=1;fontSize=16;container=0;" vertex="1" parent="1">
          <mxGeometry x="829" y="70" width="161" height="80" as="geometry" />
        </mxCell>
        <mxCell id="LjtixPhpLmeqq4RMl3_7-83" value="" style="endArrow=classic;html=1;rounded=0;fontSize=12;startSize=8;endSize=8;curved=1;strokeWidth=2;" edge="1" parent="1">
          <mxGeometry width="50" height="50" relative="1" as="geometry">
            <mxPoint x="889" y="30" as="sourcePoint" />
            <mxPoint x="888.75" y="70" as="targetPoint" />
          </mxGeometry>
        </mxCell>
      </root>
    </mxGraphModel>
  </diagram>
</mxfile>
